<svg version="1.1" id="Layer_1" xmlns="http://www.w3.org/2000/svg" xmlns:xlink="http://www.w3.org/1999/xlink" x="0px" y="0px"
	 viewBox="0 0 512 512" style="enable-background:new 0 0 512 512;" xml:space="preserve">
<path style="fill:#FFD782;" d="M317.793,97.103H194.207c-9.751,0-17.655,7.904-17.655,17.655v291.31
	c0,4.875,3.953,8.828,8.828,8.828h141.241c4.875,0,8.828-3.953,8.828-8.828v-291.31C335.448,105.007,327.544,97.103,317.793,97.103z
	"/>
<path style="fill:#FF6464;" d="M141.241,185.379H17.655C7.904,185.379,0,193.283,0,203.034v203.034c0,4.875,3.953,8.828,8.828,8.828
	h141.241c4.875,0,8.828-3.953,8.828-8.828V203.034C158.897,193.283,150.993,185.379,141.241,185.379z"/>
<path style="fill:#18BDF6;" d="M494.345,256H370.759c-9.751,0-17.655,7.904-17.655,17.655v132.414c0,4.875,3.953,8.828,8.828,8.828
	h141.241c4.875,0,8.828-3.953,8.828-8.828V273.655C512,263.904,504.096,256,494.345,256z"/>
<g>
	<path style="fill:#FFFFFF;" d="M397.241,361.931v-52.966c4.875,0,8.828-3.948,8.828-8.828c0-4.879-3.953-8.828-8.828-8.828h-17.655
		c-4.875,0-8.828,3.948-8.828,8.828c0,4.879,3.953,8.828,8.828,8.828v52.966c-4.875,0-8.828,3.948-8.828,8.828
		c0,4.879,3.953,8.828,8.828,8.828h17.655c4.875,0,8.828-3.948,8.828-8.828C406.069,365.879,402.116,361.931,397.241,361.931z"/>
	<path style="fill:#FFFFFF;" d="M441.379,361.931v-52.966c4.875,0,8.828-3.948,8.828-8.828c0-4.879-3.953-8.828-8.828-8.828h-17.655
		c-4.875,0-8.828,3.948-8.828,8.828c0,4.879,3.953,8.828,8.828,8.828v52.966c-4.875,0-8.828,3.948-8.828,8.828
		c0,4.879,3.953,8.828,8.828,8.828h17.655c4.875,0,8.828-3.948,8.828-8.828C450.207,365.879,446.254,361.931,441.379,361.931z"/>
	<path style="fill:#FFFFFF;" d="M75.034,264.828c0-4.879-3.953-8.828-8.828-8.828H48.552c-4.875,0-8.828,3.948-8.828,8.828
		c0,4.879,3.953,8.828,8.828,8.828v52.966c-4.875,0-8.828,3.948-8.828,8.828s3.953,8.828,8.828,8.828h17.655
		c4.875,0,8.828-3.948,8.828-8.828s-3.953-8.828-8.828-8.828v-52.966C71.082,273.655,75.034,269.707,75.034,264.828z"/>
	<path style="fill:#FFFFFF;" d="M110.345,326.621v-52.966c4.875,0,8.828-3.948,8.828-8.828c0-4.879-3.953-8.828-8.828-8.828H92.69
		c-4.875,0-8.828,3.948-8.828,8.828c0,4.879,3.953,8.828,8.828,8.828v52.966c-4.875,0-8.828,3.948-8.828,8.828
		s3.953,8.828,8.828,8.828h17.655c4.875,0,8.828-3.948,8.828-8.828S115.22,326.621,110.345,326.621z"/>
	<path style="fill:#FFFFFF;" d="M485.517,361.931v-52.966c4.875,0,8.828-3.948,8.828-8.828c0-4.879-3.953-8.828-8.828-8.828h-17.655
		c-4.875,0-8.828,3.948-8.828,8.828c0,4.879,3.953,8.828,8.828,8.828v52.966c-4.875,0-8.828,3.948-8.828,8.828
		c0,4.879,3.953,8.828,8.828,8.828h17.655c4.875,0,8.828-3.948,8.828-8.828C494.345,365.879,490.392,361.931,485.517,361.931z"/>
	<path style="fill:#FFFFFF;" d="M264.828,282.483v-52.966c4.875,0,8.828-3.948,8.828-8.828s-3.953-8.828-8.828-8.828h-17.655
		c-4.875,0-8.828,3.948-8.828,8.828s3.953,8.828,8.828,8.828v52.966c-4.875,0-8.828,3.948-8.828,8.828
		c0,4.879,3.953,8.828,8.828,8.828h17.655c4.875,0,8.828-3.948,8.828-8.828C273.655,286.431,269.703,282.483,264.828,282.483z"/>
</g>
<path style="fill:#FFC36E;" d="M194.207,406.069v-291.31c0-9.751,7.905-17.655,17.655-17.655h-17.655
	c-9.75,0-17.655,7.904-17.655,17.655v291.31c0,4.875,3.953,8.828,8.828,8.828h17.655
	C198.159,414.897,194.207,410.944,194.207,406.069z"/>
<path style="fill:#D2555A;" d="M17.655,406.069V203.034c0-9.751,7.905-17.655,17.655-17.655H17.655
	C7.905,185.379,0,193.283,0,203.034v203.034c0,4.875,3.953,8.828,8.828,8.828h17.655C21.608,414.897,17.655,410.944,17.655,406.069z
	"/>
<path style="fill:#23A0EB;" d="M370.759,406.069V273.655c0-9.751,7.905-17.655,17.655-17.655h-17.655
	c-9.75,0-17.655,7.904-17.655,17.655v132.414c0,4.875,3.953,8.828,8.828,8.828h17.655
	C374.711,414.897,370.759,410.944,370.759,406.069z"/>
</svg>
